<svg id="Layer_1" xmlns="http://www.w3.org/2000/svg" width="16" height="16" viewBox="0 0 16 16"><style>.st0{fill:#CACACA}</style><path class="st0" d="M10.6,12.1H0.9c-0.5,0-0.9-0.4-0.9-0.9l0-0.8c0-0.5,0.4-0.9,0.9-0.9h9.7c0.5,0,0.9,0.4,0.9,0.9v0.8 C11.6,11.7,11.1,12.1,10.6,12.1z"/><path class="st0" d="M12.8,6.9H2.6c-0.5,0-1,0.4-1,0.9v0.6H11c0.5,0,1,0.4,1,0.9v0.6h0.8c0.5,0,1-0.4,1-0.9V7.8 C13.7,7.3,13.3,6.9,12.8,6.9z"/><path class="st0" d="M15,4.6H4.9c-0.5,0-1,0.4-1,0.9v0.6h9.4c0.5,0,1,0.4,1,0.9v0.6H15c0.5,0,1-0.4,1-0.9V5.5C16,5,15.6,4.6,15,4.6z"/></svg>
